<svg xmlns="http://www.w3.org/2000/svg" version="1.1" xmlns:xlink="http://www.w3.org/1999/xlink" xmlns:svgjs="http://svgjs.dev/svgjs" width="1000" height="450" viewBox="0 0 1000 803">
  <g transform="matrix(1,0,0,1,0,0)"><svg viewBox="0 0 448 360" data-background-color="#ffffff" preserveAspectRatio="xMidYMid meet" height="803" width="1000" xmlns="http://www.w3.org/2000/svg" xmlns:xlink="http://www.w3.org/1999/xlink">
      <g id="tight-bounds" transform="matrix(1,0,0,1,0,0)"><svg viewBox="0 0 448 360" height="360" width="448">
          <g><svg></svg></g>
          <g><svg viewBox="0 0 448 360" height="360" width="448">
              <g>
                <path xmlns="http://www.w3.org/2000/svg" d="M193.855 44.683c1.378 0 2.494 1.116 2.495 2.494 0 1.378-1.116 2.494-2.495 2.495h-23.846l-17.167 17.167c-0.973 0.973-2.551 0.973-3.53 0-0.973-0.973-0.973-2.551 0-3.529l13.644-13.645h-40.378c-11.518 0-19.151 2.688-23.815 8.113-4.739 5.519-6.66 14.056-6.66 25.63 0 0.069 0 0.137-0.006 0.206l0.212 36.692 14.692-14.692c0.973-0.973 2.551-0.973 3.53 0 0.973 0.973 0.973 2.551 0 3.53l-18.178 18.178c0.206 35.832 0.193 71.358-0.013 107.19 25.486 25.2 50.617 50.312 75.811 75.791h25.38c1.378 0 2.494 1.116 2.495 2.495 0 1.378-1.116 2.494-2.495 2.494h-20.448l25.942 26.241 0.006-0.006c8.188 8.188 15.577 12.859 22.824 13.413 7.146 0.543 14.442-2.956 22.586-11.093l28.555-28.555h-20.722c-1.378 0-2.494-1.116-2.495-2.494 0-1.378 1.116-2.494 2.495-2.495h25.711l16.625-16.625c0.973-0.973 2.551-0.973 3.529 0 0.973 0.973 0.973 2.551 0 3.53l-13.101 13.102h40.377c11.518 0 19.151-2.688 23.815-8.113 4.739-5.519 6.66-14.056 6.66-25.63h0.013l-0.212-36.898-16.014 16.014c-0.973 0.973-2.551 0.973-3.53 0-0.973-0.973-0.973-2.551 0-3.53l19.5-19.5c-0.206-35.832-0.193-71.358 0.013-107.19-25.486-25.2-50.617-50.312-75.811-75.791h-26.147c-1.378 0-2.494-1.116-2.495-2.495 0-1.378 1.116-2.494 2.495-2.494h21.215l-25.824-26.123c-0.044-0.037-0.081-0.075-0.124-0.112-8.188-8.188-15.577-12.859-22.824-13.413-7.146-0.543-14.442 2.956-22.586 11.093l-28.555 28.555h18.858zM122.578 44.683h45.367l32.078-32.078c9.248-9.248 17.81-13.195 26.484-12.534 8.568 0.649 16.956 5.824 25.985 14.854 0.05 0.05 0.094 0.094 0.137 0.143l29.278 29.615h43.508c13.071 0 21.919 3.268 27.594 9.871 5.6 6.517 7.864 16.101 7.864 28.867 0 0.081-0.006 0.156-0.012 0.23l-0.225 39.742 28.43 28.112 0.006-0.006c9.03 9.03 14.206 17.411 14.854 25.985 0.661 8.674-3.293 17.236-12.534 26.484l-30.768 30.768 0.237 41.843h0.012c0 12.765-2.27 22.35-7.864 28.867-5.675 6.604-14.524 9.872-27.594 9.871h-45.366l-32.078 32.078c-9.248 9.248-17.81 13.195-26.484 12.534-8.568-0.649-16.956-5.824-25.985-14.854l0.006-0.006-29.421-29.758h-43.509c-13.071 0-21.919-3.268-27.594-9.872-5.6-6.517-7.864-16.101-7.863-28.866h0.012l0.231-39.972-28.293-27.969c-0.05-0.044-0.1-0.087-0.143-0.137-9.03-9.03-14.206-17.411-14.854-25.985-0.661-8.674 3.293-17.236 12.534-26.484l30.768-30.768-0.237-41.607c-0.006-0.075-0.012-0.156-0.012-0.23 0-12.765 2.27-22.35 7.864-28.867 5.675-6.604 14.524-9.872 27.594-9.871zM87.682 179.997l-0.274-47.724-27.276 27.276c-8.138 8.138-11.636 15.44-11.094 22.587 0.549 7.246 5.226 14.642 13.413 22.823 0.037 0.037 0.081 0.081 0.113 0.125l24.837 24.551 0.281-49.644zM92.303 241.483l-0.2 35.09h0.013c0 11.58 1.921 20.117 6.66 25.63 4.664 5.432 12.297 8.113 23.815 8.113h38.576l-33.55-33.936-35.308-34.903zM325.415 49.672h-38.575l33.549 33.936 35.308 34.902 0.2-34.884c-0.006-0.069-0.006-0.137-0.007-0.205 0-11.58-1.921-20.117-6.66-25.63-4.664-5.432-12.297-8.113-23.815-8.113zM360.599 130.352l-0.281 49.645 0.274 47.724 27.276-27.276c8.138-8.138 11.636-15.44 11.094-22.587-0.549-7.252-5.226-14.642-13.413-22.824l0.006-0.006-24.956-24.669z" fill="#fff" fill-rule="nonzero" stroke="none" stroke-width="1" stroke-linecap="butt" stroke-linejoin="miter" stroke-miterlimit="10" stroke-dasharray="" stroke-dashoffset="0" font-family="none" font-weight="none" font-size="none" text-anchor="none" style="mix-blend-mode: normal" data-fill-palette-color="tertiary"></path>
              </g>
              <g transform="matrix(1,0,0,1,134,90)"><svg viewBox="0 0 180 180" height="180" width="180">
                  <g><svg viewBox="0 0 180 180" height="180" width="180">
                      <g><svg viewBox="0 0 180 180" height="180" width="180">
                          <g id="textblocktransform"><svg viewBox="0 0 180 180" height="180" width="180" id="textblock">
                              <g><svg viewBox="0 0 180 180" height="180" width="180">
                                  <g transform="matrix(1,0,0,1,53.25722421535316,47.57359312880715)"><svg viewBox="0 0 73.48555156929368 84.8528137423857" height="84.8528137423857" width="73.48555156929368">
                                      <g><svg xmlns:x="http://ns.adobe.com/Extensibility/1.0/" xmlns:i="http://ns.adobe.com/AdobeIllustrator/10.0/" xmlns:graph="http://ns.adobe.com/Graphs/1.0/" xmlns="http://www.w3.org/2000/svg" xmlns:xlink="http://www.w3.org/1999/xlink" version="1.0" x="0" y="0" viewBox="12.130000114440918 6.271999835968018 75.73999786376953 87.45599365234375" enable-background="new 0 0 100 100" xml:space="preserve" height="84.8528137423857" width="73.48555156929368" class="icon-o-0" data-fill-palette-color="accent" id="o-0">
                                          <g fill="#fff" data-fill-palette-color="accent">
                                            <path d="M50 6.272L12.13 28.137v43.728L50 93.728l37.87-21.863V28.137L50 6.272zM78.438 32.691L51 16.85V9.159L84.898 28.73 78.438 32.691zM50 59.352l-7.21-4.162v-8.326L50 42.701l7.209 4.162v8.326L50 59.352zM49 40.968l-6.67 3.851-7.902-4.675L49 31.731V40.968zM40.79 46.232v8.625l-8 4.451v-17.81L40.79 46.232zM41.498 56.753L49 61.083v9.238l-15.65-9.035L41.498 56.753zM51 61.083l7.502-4.331 8.148 4.534L51 70.321V61.083zM59.209 54.855v-8.73l0.314 0.513 7.687-4.714v17.383L59.209 54.855zM58.479 44.934l0.335 0.547L51 40.969v-9.237l14.94 8.625L58.479 44.934zM49 29.422l-16.547 9.553-8.779-5.194L49 19.159V29.422zM30.79 40.315v20.107l-8 4.451V35.582L30.79 40.315zM31.313 62.42L49 72.63v8.212L24.071 66.449 31.313 62.42zM51 72.63l17.687-10.211 7.243 4.03L51 80.842V72.63zM69.21 60.421V40.698l8-4.907v29.081L69.21 60.421zM67.879 39.168L51 29.423V19.159l25.5 14.722L67.879 39.168zM49 16.849L21.699 32.612l-6.579-3.893L49 9.159V16.849zM20.79 34.398v31.588l-6.66 3.705V30.458L20.79 34.398zM22.034 67.583L49 83.15v7.691L15.251 71.357 22.034 67.583zM51 83.15l26.966-15.568 6.783 3.775L51 90.842V83.15zM79.21 65.985V34.564l6.66-4.085v39.212L79.21 65.985z" fill="#0bd0d0" data-fill-palette-color="accent"></path>
                                          </g>
                                        </svg></g>
                                    </svg></g>
                                  <g>
                                    <path d="M2.312 92.494c0-3.811 3.089-6.9 6.901-6.9 3.811 0 6.9 3.089 6.9 6.9 0 3.811-3.089 6.9-6.9 6.9-3.811 0-6.9-3.089-6.901-6.9zM163.899 92.494c0-3.811 3.089-6.9 6.9-6.9 3.811 0 6.9 3.089 6.9 6.9 0 3.811-3.089 6.9-6.9 6.9-3.811 0-6.9-3.089-6.9-6.9z" fill="#fff" data-fill-palette-color="primary"></path>
                                    <path d="M7.78 50.228c0.094-0.242 0.371-0.48 0.833-0.715 0.464-0.241 0.811-0.317 1.04-0.228v0c1.073 0.415 2.528 1.021 4.366 1.818v0c0.445 0.194 0.988 0.422 1.628 0.684 0.632 0.266 1.369 0.562 2.213 0.888v0c2.673 1.035 4.703 1.638 6.09 1.812v0c0.414 0.182 0.654 0.467 0.717 0.855 0.064 0.388 0.034 0.741-0.088 1.057v0c-0.274 0.707-0.701 1.073-1.281 1.098-0.574 0.027-1.317-0.135-2.228-0.488v0c-3.392-1.313-6.501-2.556-9.327-3.728v0c1.469 2.893 2.751 5.197 3.848 6.912v0c0 0 0.044 0.199 0.133 0.597v0c0.143 0.405 0.177 0.703 0.103 0.895v0c-0.178 0.459-0.436 0.794-0.774 1.006-0.345 0.209-0.791 0.368-1.34 0.476v0l-2.285 0.57c-1.569 0.405-2.747 0.687-3.535 0.845v0c1.612 0.624 3.838 1.396 6.675 2.317v0c1.648 0.495 2.878 0.9 3.691 1.214v0c0.422 0.163 0.734 0.405 0.938 0.727 0.21 0.324 0.226 0.715 0.048 1.174v0c-0.175 0.453-0.406 0.791-0.693 1.015-0.293 0.222-0.616 0.275-0.97 0.159v0c-0.29-0.134-0.78-0.334-1.468-0.6v0c-1.37-0.53-3.058-1.134-5.064-1.81v0l-1.445-0.495-1.86-0.667c-0.553-0.193-1.199-0.421-1.938-0.686-0.733-0.262-1.53-0.56-2.392-0.893v0c-1.054-0.408-1.36-1.183-0.919-2.324v0c0.137-0.353 0.362-0.676 0.675-0.969 0.319-0.29 0.678-0.461 1.076-0.514v0c0.673 0.104 1.893-0.019 3.661-0.369 1.772-0.341 3.448-0.701 5.028-1.08v0c-0.686-1.157-1.179-2.075-1.479-2.755v0c-0.536-1.177-1.064-2.187-1.586-3.031-0.524-0.838-1.178-1.782-1.962-2.834v0c-0.151-0.237-0.242-0.536-0.273-0.897-0.034-0.355 0.014-0.7 0.144-1.036zM55.025 26.053c-0.38-0.135-0.747-0.318-1.101-0.548-0.349-0.234-0.752-0.528-1.21-0.882v0c-0.078-0.06-0.321-0.24-0.728-0.539-0.407-0.299-0.797-0.53-1.17-0.693v0c-0.91 0.785-1.681 1.381-2.313 1.788v0c-0.346 0.223-0.739 0.461-1.178 0.712-0.434 0.248-0.751 0.437-0.952 0.567v0c-0.833 0.45-1.487 0.829-1.963 1.134v0c-0.028 0.374-0.017 0.747 0.033 1.119 0.05 0.371 0.155 0.909 0.316 1.612v0c0.245 1.005 0.377 1.751 0.397 2.236v0c0.006 0.328-0.195 0.624-0.603 0.887v0c-0.352 0.227-0.722 0.359-1.11 0.395-0.393 0.04-0.677-0.074-0.849-0.342v0c-0.257-0.681-0.464-1.449-0.621-2.306-0.159-0.847-0.339-2.005-0.542-3.472v0l-0.55-2.933c-0.336-1.674-0.592-3.127-0.769-4.358-0.177-1.231-0.328-2.724-0.454-4.478v0c-0.028-0.251 0.027-0.516 0.164-0.794 0.137-0.278 0.34-0.504 0.608-0.677v0c0.302-0.195 0.532-0.316 0.692-0.363 0.159-0.047 0.305-0.054 0.437-0.021 0.136 0.039 0.369 0.142 0.698 0.31v0c1.083 0.489 2.103 1.053 3.062 1.693 0.964 0.636 2.252 1.547 3.862 2.731v0l1.314 0.933c1.177 0.855 2.174 1.561 2.991 2.118 0.827 0.559 1.64 1.028 2.439 1.407v0c0.524 0.248 0.836 0.45 0.937 0.606v0c0.245 0.38 0.318 0.744 0.218 1.094-0.103 0.343-0.339 0.634-0.708 0.872v0c-0.458 0.295-0.907 0.36-1.347 0.192zM48.869 21.881c-0.603-0.371-1.571-1.068-2.904-2.092v0c-1.411-1.108-2.629-1.924-3.656-2.449v0c0.188 0.955 0.376 2.222 0.565 3.802v0c0.083 0.999 0.325 2.37 0.728 4.111v0c1.096-0.533 2.229-1.176 3.397-1.929v0c0.844-0.544 1.467-1.025 1.87-1.443zM93.488 10.371c0.668 1.105 1.338 2.083 2.011 2.935 0.679 0.852 1.569 1.895 2.671 3.129v0c0.134 0.132 0.202 0.281 0.203 0.447v0c0.002 0.266-0.142 0.493-0.433 0.682-0.291 0.195-0.642 0.295-1.055 0.298v0c-0.585 0.005-1.219-0.235-1.901-0.721v0c-0.609-0.427-1.149-0.997-1.621-1.712-0.478-0.707-1.035-1.633-1.67-2.778v0c-0.5-0.887-0.797-1.403-0.891-1.548v0c-0.729 0.306-1.877 0.502-3.446 0.588v0c0.006 0.645 0.07 1.512 0.192 2.602v0c0.123 1.129 0.187 1.95 0.191 2.462v0c0.003 0.339-0.157 0.623-0.481 0.852-0.33 0.229-0.702 0.345-1.114 0.349v0c-0.492 0.004-0.873-0.192-1.143-0.588v0c-0.264-0.523-0.439-1.153-0.525-1.891-0.08-0.731-0.124-1.605-0.133-2.622v0c-0.009-1.077 0.046-2.295 0.168-3.652v0c0.1-1.51 0.147-2.621 0.14-3.333v0c-0.005-0.585-0.068-1.369-0.19-2.352v0c-0.021-0.166-0.054-0.458-0.097-0.877-0.037-0.412-0.057-0.787-0.06-1.127v0c-0.002-0.266 0.095-0.496 0.293-0.691 0.191-0.201 0.399-0.339 0.625-0.414v0c1.527-0.259 3.016-0.395 4.465-0.408v0c2.474-0.022 4.522 0.423 6.146 1.332 1.63 0.903 2.454 2.299 2.471 4.188v0c0.005 0.585-0.116 1.148-0.365 1.689-0.248 0.534-0.59 0.983-1.025 1.346v0c-1.143 0.894-2.284 1.5-3.426 1.815zM95.331 5.457c-0.008-0.904-0.493-1.638-1.456-2.201-0.969-0.57-2.338-0.847-4.107-0.832v0c-0.791 0.007-1.572 0.11-2.341 0.31v0l0.032 1.436c0.007 0.831-0.012 1.643-0.058 2.434v0c-0.053 0.792-0.075 1.64-0.068 2.544v0c0.325-0.076 0.664-0.129 1.016-0.158 0.359-0.036 0.595-0.062 0.708-0.076v0c0.83-0.087 1.471-0.189 1.922-0.306v0c0.849-0.267 1.548-0.512 2.099-0.737 0.557-0.224 1.073-0.541 1.547-0.951 0.475-0.41 0.71-0.897 0.706-1.463zM145.342 20.936c0.056 0.44 0.076 0.777 0.059 1.011-0.017 0.234-0.077 0.433-0.182 0.595v0c-0.123 0.19-0.388 0.331-0.795 0.424-0.408 0.093-0.729 0.064-0.965-0.088v0c-0.319-0.205-0.542-0.417-0.67-0.634-0.129-0.218-0.191-0.471-0.186-0.761v0c-0.006-0.542-0.103-1.067-0.289-1.575-0.189-0.517-0.671-1.026-1.448-1.528v0c-0.665-0.429-1.517-0.765-2.555-1.007-1.044-0.246-1.89-0.266-2.538-0.059v0c-0.574 0.191-1.238 0.618-1.99 1.281-0.748 0.657-1.367 1.365-1.857 2.125v0c-0.595 0.922-0.938 1.895-1.03 2.92-0.09 1.034 0.101 2.027 0.571 2.98 0.475 0.956 1.25 1.78 2.322 2.471v0c0.587 0.379 1.267 0.655 2.041 0.83 0.774 0.175 1.559 0.147 2.356-0.082v0l-0.017-0.011c0.48-0.118 0.932-0.04 1.356 0.234v0c0.251 0.162 0.422 0.431 0.513 0.806 0.085 0.371 0.057 0.666-0.083 0.883v0c-0.155 0.24-0.328 0.429-0.52 0.567-0.188 0.132-0.449 0.248-0.783 0.349v0c-1.117 0.308-2.206 0.31-3.268 0.005-1.065-0.299-2.215-0.847-3.45-1.644v0c-1.09-0.703-2.024-1.677-2.802-2.923-0.782-1.241-1.234-2.43-1.354-3.568v0c-0.017-0.66 0.104-1.516 0.362-2.568 0.268-1.054 0.575-1.849 0.922-2.385v0c0.89-1.38 1.945-2.555 3.164-3.525 1.223-0.976 2.493-1.565 3.811-1.767v0c0.881-0.152 1.928-0.014 3.141 0.412 1.211 0.417 2.249 0.905 3.115 1.463v0c1.062 0.685 1.804 1.374 2.228 2.067 0.422 0.683 0.695 1.584 0.821 2.702zM175.01 57.027c0.494 1.163 0.799 2.28 0.915 3.351 0.118 1.077 0.032 2.038-0.26 2.884v0c-0.529 1.511-1.284 2.735-2.265 3.672-0.985 0.946-2.387 1.805-4.204 2.577v0c-0.386 0.164-0.755 0.263-1.109 0.298-0.351 0.041-0.813 0.06-1.385 0.057v0c-0.65-0.034-1.143-0.013-1.479 0.065v0c-0.751-0.085-1.573-0.404-2.465-0.957-0.892-0.553-1.705-1.215-2.438-1.988-0.741-0.776-1.259-1.51-1.553-2.201v0c-1.422-3.348-1.292-6.221 0.391-8.619v0c0.474-0.671 1.011-1.26 1.611-1.769 0.604-0.517 1.237-0.916 1.898-1.196v0c1.769-0.751 3.443-1.087 5.023-1.007 1.578 0.074 2.971 0.522 4.18 1.345v0c0.684 0.504 1.318 1.069 1.902 1.695 0.581 0.62 0.994 1.218 1.238 1.793zM163.735 55.944c-0.936 0.398-1.616 0.94-2.041 1.626-0.426 0.68-0.809 1.615-1.148 2.807v0c0.034 0.845 0.066 1.413 0.096 1.704 0.032 0.297 0.119 0.611 0.259 0.941v0c0.744 1.75 1.814 2.943 3.21 3.578 1.397 0.635 2.927 0.598 4.593-0.109v0c1.322-0.562 2.303-1.152 2.943-1.771 0.634-0.616 1.092-1.436 1.372-2.458v0c0.161-0.538 0.19-1.15 0.087-1.836-0.107-0.677-0.313-1.374-0.617-2.089v0c-0.455-1.071-1.164-1.864-2.127-2.38-0.969-0.513-2.042-0.758-3.217-0.736-1.178 0.016-2.315 0.257-3.41 0.723zM29.295 126.54c0.096 0.248 0.053 0.614-0.13 1.099-0.187 0.493-0.395 0.784-0.624 0.874v0c-1.079 0.418-2.569 0.953-4.47 1.605v0c-0.47 0.168-1.031 0.368-1.682 0.599-0.652 0.231-1.403 0.512-2.252 0.841v0c-2.684 1.041-4.604 1.967-5.759 2.779v0c-0.429 0.145-0.797 0.095-1.106-0.148-0.309-0.244-0.525-0.527-0.65-0.85v0c-0.274-0.707-0.205-1.265 0.206-1.674 0.409-0.416 1.073-0.801 1.991-1.157v0c3.416-1.325 6.569-2.509 9.46-3.552v0c-3.052-1.156-5.568-1.999-7.55-2.528v0c0 0-0.168-0.12-0.503-0.361v0c-0.382-0.194-0.61-0.387-0.685-0.579v0c-0.18-0.465-0.21-0.892-0.09-1.281 0.114-0.387 0.336-0.808 0.665-1.264v0l1.31-1.974c0.89-1.365 1.576-2.373 2.058-3.023v0c-1.624 0.63-3.804 1.565-6.54 2.804v0c-1.558 0.747-2.746 1.279-3.564 1.596v0c-0.422 0.164-0.819 0.196-1.192 0.099-0.373-0.098-0.649-0.376-0.827-0.835v0c-0.178-0.459-0.237-0.868-0.176-1.226 0.067-0.361 0.273-0.619 0.62-0.775v0c0.305-0.097 0.804-0.28 1.498-0.55v0c1.376-0.534 3.038-1.232 4.986-2.094v0l1.415-0.602 1.828-0.773c0.545-0.233 1.179-0.5 1.904-0.803 0.724-0.302 1.52-0.622 2.388-0.958v0c1.06-0.411 1.814-0.04 2.261 1.113v0c0.137 0.353 0.189 0.744 0.155 1.17-0.038 0.436-0.191 0.805-0.458 1.109v0c-0.565 0.383-1.389 1.302-2.473 2.756-1.081 1.461-2.079 2.868-2.995 4.221v0c1.286 0.393 2.274 0.741 2.962 1.044v0c1.197 0.513 2.276 0.904 3.237 1.174 0.954 0.272 2.081 0.53 3.381 0.774v0c0.273 0.079 0.542 0.239 0.807 0.479 0.267 0.246 0.465 0.536 0.594 0.871zM48.616 169.024c-0.034-0.402-0.017-0.814 0.05-1.238 0.064-0.418 0.166-0.909 0.308-1.474v0c0.017-0.1 0.078-0.397 0.183-0.891 0.108-0.5 0.159-0.953 0.153-1.36v0c-1.1-0.503-1.968-0.959-2.606-1.37v0c-0.352-0.227-0.729-0.489-1.13-0.788-0.41-0.296-0.719-0.511-0.926-0.644v0c-0.76-0.576-1.377-1.018-1.853-1.323v0c-0.352 0.129-0.692 0.294-1.018 0.494-0.318 0.199-0.766 0.519-1.343 0.962v0c-0.818 0.644-1.444 1.075-1.878 1.294v0c-0.297 0.141-0.652 0.079-1.065-0.188v0c-0.352-0.227-0.628-0.511-0.827-0.853-0.193-0.338-0.204-0.641-0.031-0.91v0c0.515-0.53 1.131-1.043 1.846-1.539 0.715-0.496 1.701-1.143 2.957-1.939v0l2.463-1.724c1.395-1 2.619-1.837 3.671-2.512 1.052-0.675 2.36-1.434 3.923-2.278v0c0.217-0.129 0.481-0.188 0.791-0.178 0.31 0.01 0.599 0.101 0.868 0.274v0c0.302 0.194 0.51 0.356 0.624 0.485 0.109 0.126 0.174 0.258 0.195 0.398 0.024 0.134 0.029 0.391 0.015 0.769v0c-0.002 1.193-0.095 2.363-0.28 3.51-0.181 1.141-0.48 2.697-0.895 4.668v0l-0.312 1.59c-0.291 1.434-0.523 2.641-0.696 3.622-0.171 0.989-0.263 1.931-0.276 2.823v0c-0.009 0.579-0.066 0.95-0.171 1.112v0c-0.245 0.38-0.549 0.595-0.914 0.645-0.355 0.048-0.717-0.047-1.086-0.284v0c-0.458-0.295-0.705-0.68-0.74-1.153zM49.878 161.65c0.092-0.708 0.331-1.883 0.716-3.525v0c0.428-1.757 0.668-3.216 0.72-4.377v0c-0.795 0.571-1.878 1.27-3.249 2.096v0c-0.879 0.493-2.031 1.286-3.454 2.378v0c0.935 0.784 1.992 1.556 3.171 2.316v0c0.85 0.547 1.548 0.918 2.096 1.112zM93.521 172.4c0.655 1.123 1.315 2.12 1.978 2.99 0.671 0.87 1.549 1.935 2.636 3.195v0c0.132 0.134 0.197 0.288 0.195 0.461v0c-0.002 0.266-0.151 0.491-0.445 0.674-0.294 0.19-0.651 0.284-1.069 0.28v0c-0.585-0.005-1.218-0.257-1.899-0.755v0c-0.601-0.444-1.138-1.027-1.611-1.75-0.466-0.729-1.006-1.675-1.621-2.837v0c-0.484-0.895-0.776-1.417-0.874-1.563v0c-0.741 0.293-1.896 0.472-3.465 0.538v0c-0.006 0.645 0.043 1.517 0.146 2.614v0c0.103 1.138 0.152 1.963 0.148 2.475v0c-0.003 0.339-0.172 0.624-0.506 0.854-0.334 0.223-0.711 0.333-1.13 0.329v0c-0.492-0.004-0.869-0.207-1.132-0.608v0c-0.261-0.534-0.425-1.171-0.492-1.91-0.073-0.739-0.105-1.62-0.096-2.644v0c0.009-1.084 0.087-2.307 0.231-3.669v0c0.126-1.515 0.193-2.635 0.199-3.359v0c0.005-0.585-0.044-1.374-0.149-2.366v0c-0.018-0.166-0.043-0.459-0.072-0.878-0.036-0.419-0.053-0.798-0.05-1.138v0c0.002-0.266 0.104-0.498 0.306-0.695 0.201-0.198 0.415-0.332 0.642-0.403v0c1.538-0.233 3.039-0.342 4.501-0.33v0c2.48 0.022 4.534 0.502 6.162 1.44 1.621 0.945 2.423 2.365 2.406 4.261v0c-0.005 0.592-0.14 1.156-0.404 1.692-0.257 0.536-0.607 0.986-1.049 1.347v0c-1.165 0.881-2.327 1.466-3.486 1.755zM95.469 167.5c0.008-0.911-0.468-1.66-1.427-2.247-0.959-0.587-2.333-0.888-4.121-0.904v0c-0.791-0.007-1.577 0.079-2.357 0.259v0l0.017 1.456c-0.007 0.831-0.044 1.645-0.111 2.443v0c-0.06 0.797-0.094 1.652-0.102 2.563v0c0.32-0.077 0.659-0.127 1.019-0.151 0.359-0.023 0.596-0.045 0.708-0.064v0c0.838-0.066 1.484-0.153 1.938-0.262v0c0.86-0.258 1.57-0.495 2.131-0.71 0.56-0.215 1.085-0.522 1.574-0.923 0.482-0.408 0.726-0.895 0.731-1.46zM135.239 148.363c0.424 0.13 0.741 0.254 0.952 0.372 0.207 0.112 0.362 0.249 0.466 0.411v0c0.122 0.19 0.144 0.493 0.064 0.909-0.084 0.41-0.246 0.692-0.487 0.847v0c-0.319 0.205-0.604 0.322-0.854 0.349-0.257 0.031-0.513-0.017-0.77-0.145v0c-0.506-0.22-1.031-0.348-1.577-0.384-0.543-0.045-1.206 0.184-1.989 0.688v0c-0.671 0.432-1.334 1.073-1.988 1.923-0.661 0.853-1.029 1.62-1.104 2.301v0c-0.068 0.606 0.046 1.391 0.342 2.354 0.293 0.958 0.686 1.82 1.18 2.586v0c0.594 0.922 1.343 1.642 2.246 2.16 0.905 0.508 1.896 0.744 2.971 0.708 1.067-0.039 2.142-0.407 3.227-1.107v0c0.587-0.378 1.122-0.885 1.606-1.521 0.484-0.636 0.786-1.365 0.906-2.186v0l-0.025 0.017c0.093-0.495 0.354-0.881 0.784-1.158v0c0.252-0.162 0.567-0.207 0.946-0.135 0.373 0.076 0.632 0.226 0.776 0.449v0c0.155 0.24 0.255 0.476 0.301 0.708 0.046 0.231 0.046 0.52 0.001 0.866v0c-0.182 1.154-0.631 2.151-1.347 2.992-0.718 0.85-1.7 1.677-2.947 2.48v0c-1.096 0.706-2.374 1.158-3.836 1.356-1.466 0.193-2.744 0.111-3.837-0.245v0c-0.614-0.253-1.35-0.72-2.208-1.401-0.849-0.679-1.448-1.29-1.797-1.832v0c-0.893-1.386-1.534-2.84-1.921-4.363-0.382-1.526-0.392-2.935-0.031-4.228v0c0.231-0.869 0.789-1.77 1.674-2.704 0.885-0.934 1.767-1.684 2.644-2.25v0c1.068-0.688 2.004-1.082 2.81-1.182 0.806-0.1 1.746 0.022 2.822 0.365zM153.579 118.913c0.498-1.168 1.095-2.172 1.792-3.01 0.694-0.832 1.453-1.434 2.276-1.806v0c1.46-0.679 2.876-0.99 4.247-0.933 1.362 0.06 2.961 0.481 4.796 1.262v0c0.379 0.162 0.708 0.356 0.987 0.583 0.27 0.231 0.606 0.554 1.007 0.971v0c0.426 0.492 0.787 0.834 1.081 1.025v0c0.457 0.607 0.799 1.425 1.026 2.453 0.218 1.032 0.304 2.085 0.26 3.157-0.045 1.072-0.217 1.96-0.517 2.664v0c-1.433 3.365-3.605 5.273-6.515 5.724v0c-0.818 0.121-1.622 0.144-2.414 0.067-0.791-0.077-1.52-0.257-2.187-0.541v0c-1.774-0.756-3.186-1.733-4.237-2.932-1.044-1.197-1.691-2.52-1.94-3.971v0c-0.108-0.848-0.143-1.701-0.103-2.559 0.049-0.861 0.196-1.579 0.441-2.154zM160.662 127.839c0.942 0.401 1.81 0.518 2.604 0.35 0.794-0.168 1.738-0.543 2.832-1.124v0c0.588-0.617 0.978-1.04 1.169-1.269 0.189-0.223 0.355-0.503 0.499-0.84v0c0.751-1.762 0.868-3.37 0.353-4.825-0.515-1.455-1.61-2.54-3.286-3.254v0c-1.321-0.563-2.431-0.859-3.33-0.888-0.89-0.032-1.805 0.207-2.745 0.717v0c-0.5 0.257-0.961 0.66-1.383 1.211-0.425 0.556-0.79 1.192-1.095 1.908v0c-0.459 1.077-0.538 2.145-0.238 3.205 0.309 1.057 0.881 2.005 1.716 2.845 0.835 0.84 1.803 1.494 2.904 1.964z" fill="#fff" data-fill-palette-color="primary"></path>
                                  </g>
                                </svg></g>
                            </svg></g>
                        </svg></g>
                      <g></g>
                    </svg></g>
                </svg></g>
            </svg></g>
          <defs></defs>
        </svg>
        <rect width="448" height="360" fill="none" stroke="none" visibility="hidden"></rect>
      </g>
    </svg></g>
</svg>